<?xml version="1.0" standalone="no"?>
<!DOCTYPE svg PUBLIC "-//W3C//DTD SVG 20010904//EN"
 "http://www.w3.org/TR/2001/REC-SVG-20010904/DTD/svg10.dtd">
<svg version="1.0" xmlns="http://www.w3.org/2000/svg"
 width="16.000000pt" height="16.000000pt" viewBox="0 0 16.000000 16.000000"
 preserveAspectRatio="xMidYMid meet">
<metadata>
Created by potrace 1.11, written by Peter Selinger 2001-2013
</metadata>
<g transform="translate(0.000000,16.000000) scale(0.002286,-0.002286)"
fill="#000000" stroke="none">
<path d="M3478 6975 c-2 -1 -88 -5 -193 -8 -104 -4 -206 -8 -225 -11 -19 -2
-69 -7 -110 -11 -41 -3 -84 -8 -95 -10 -11 -3 -38 -7 -60 -10 -265 -36 -584
-121 -829 -221 -377 -154 -671 -347 -941 -618 -329 -330 -539 -687 -681 -1155
-41 -136 -68 -253 -89 -383 -3 -18 -7 -44 -10 -58 -13 -73 -35 -292 -30 -300
4 -6 1773 -5 1779 1 2 2 7 24 10 49 12 88 30 167 63 280 27 94 36 115 96 240
191 401 563 657 1042 717 77 9 351 10 435 0 472 -53 807 -305 934 -703 14 -43
28 -92 31 -109 2 -16 7 -41 10 -55 27 -134 24 -378 -6 -527 -6 -29 -10 -54 -9
-55 1 -5 -49 -151 -61 -178 -56 -124 -110 -202 -204 -296 -141 -143 -261 -207
-550 -294 -34 -10 -225 -39 -300 -44 -27 -3 -233 -5 -457 -5 l-408 -1 0 -728
0 -729 419 -1 c453 0 517 -3 690 -33 342 -59 614 -215 790 -453 50 -67 151
-261 151 -289 0 -8 7 -30 15 -50 14 -34 37 -135 52 -232 12 -78 9 -432 -5
-505 -13 -67 -19 -99 -26 -138 -4 -18 0 -22 22 -23 125 -4 2024 -1 2028 4 14
13 31 262 28 422 -1 103 -12 276 -19 305 -1 3 -5 30 -9 60 -4 30 -12 71 -16
90 -5 19 -12 51 -15 70 -28 165 -146 461 -254 639 -42 70 -132 201 -156 227
-5 6 -30 35 -55 64 -164 194 -414 384 -660 502 -169 81 -256 114 -400 153
-125 33 -120 29 -49 54 489 175 883 485 1115 876 89 150 154 309 214 520 8 30
30 159 49 285 10 65 8 493 -2 540 -3 14 -8 43 -12 65 -11 80 -18 112 -42 210
-24 102 -85 290 -108 335 -7 14 -36 72 -65 130 -229 460 -651 842 -1190 1081
-103 45 -312 121 -400 146 -119 33 -237 62 -270 68 -19 3 -53 10 -75 15 -51
11 -215 37 -280 45 -27 3 -63 8 -80 10 -47 8 -166 15 -335 21 -85 2 -163 6
-172 8 -9 2 -18 3 -20 1z"/>
</g>
</svg>
